# xmcd CD database file
#
# Track frame offsets:
#	183
#	20938
#	58478
#	89095
#	116635
#	146773
#	195393
#	219513
#	247988
#
# Disc length: 3730 seconds
#
# Revision: 2
# Processed by: cddbd v1.5.1PL0 Copyright (c) Steve Scherf et al.
# Submitted via: CDex 1.51
#
DISCID=8d0e9009
DTITLE=The First Class Bluesband - Live !
DYEAR=1994
DGENRE=Blues
TTITLE0=Came Back To The Blues
TTITLE1=Blue Shadows
TTITLE2=Mean Mistreater
TTITLE3=Cry For Me
TTITLE4=Soul Serenade
TTITLE5=Sweet Sixteen
TTITLE6=Cried Last Night
TTITLE7=Kidney Stew
TTITLE8=You Can Stay But That Noise Has To Go
EXTD=Oct. 21, 1994 At Franz-Club, Berlin YEAR: 1994
EXTT0=
EXTT1=
EXTT2=
EXTT3=
EXTT4=
EXTT5=
EXTT6=
EXTT7=
EXTT8=
PLAYORDER=
